<?xml version="1.0" encoding="UTF-8" standalone="no"?>
<!DOCTYPE svg PUBLIC "-//W3C//DTD SVG 1.1//EN" "http://www.w3.org/Graphics/SVG/1.1/DTD/svg11.dtd">
<svg viewBox="0 0 295 345" version="1.1" xmlns="http://www.w3.org/2000/svg" xmlns:xlink="http://www.w3.org/1999/xlink" xml:space="preserve" xmlns:serif="http://www.serif.com/" style="fill-rule:evenodd;clip-rule:evenodd;stroke-linecap:round;stroke-linejoin:round;stroke-miterlimit:1.5;">
  <path d="M190.316,283.667c0.987,-49.666 -13.261,-87.762 -38.157,-117.771c0,0 -8.785,13.204 -13.07,24.786c-4.285,11.583 -11.883,13.852 -19.959,32.531c-8.076,18.679 -39.166,38.314 -44.428,33.51c-12.334,-11.26 12.842,-2.713 31.263,-25.388c18.421,-22.674 11.43,-31.445 26.035,-41.127c7.082,-4.695 9.873,-22.148 9.403,-24.015c-0.471,-1.867 -10.565,14.13 -21.149,21.283c-10.584,7.153 -31.68,16.789 -45.971,21.398c-14.291,4.61 -31.434,14.197 -43.189,8.258c-11.754,-5.938 -15.225,-11.891 -9.893,-15.921c5.332,-4.031 2.702,8.553 10.069,8.908c7.368,0.355 5.282,6.3 28.946,-2.024c23.665,-8.324 37.1,-15.422 49.035,-22.152c11.935,-6.729 20.895,-17.738 21.702,-19.779c0.807,-2.04 -18.462,5.102 -38.376,-18.481c-19.914,-23.584 -19.689,-19.967 -23.458,-24.473c-3.769,-4.507 -31.104,-26.309 -21.616,-32.571c2.523,-1.665 3.593,6.266 15.763,17.853c12.169,11.586 12.107,10.841 22.772,22.222c10.665,11.38 13.063,19.065 26.77,24.011c13.706,4.946 20.903,4.076 25.265,2.298c4.362,-1.777 -3.091,-6.956 2.966,-14.305c3.638,-4.414 6.762,-6.88 15.504,-7.193c2.579,-0.093 5.819,-17.636 2.459,-22.615c-3.359,-4.979 -7.8,-14.814 -16.066,-22.424c-8.266,-7.609 -21.474,-28.829 -22.372,-28.649c-0.897,0.18 -21.252,-4.704 -17.48,-8.915c6.145,-6.861 21.192,3.67 26.976,10.056c5.783,6.387 45.323,44.829 36.315,68.02c-9.008,23.191 9.328,-6.99 11.54,-10.146c2.211,-3.156 7.5,-20.347 -3.251,-43.743c-11.262,-24.506 -22.427,-10.337 -16.646,-21.45c5.781,-11.113 22.153,13.696 22.167,15.269c0.014,1.573 7.707,8.038 7.527,35.345c-0.179,27.308 -0.544,-2.401 4.334,-9.598c4.878,-7.196 -1.971,-29.694 1.149,-35.699c3.121,-6.005 -2.818,-23.441 -4.232,-24.898c-1.414,-1.457 4.611,-11.626 9.683,2.619c5.071,14.246 0.406,19.442 1.446,29.502c1.04,10.06 -1.401,13.614 -0.908,29.35c0.342,10.906 -15.304,18.843 -16.34,37.022c-0.452,7.94 -8.818,4.641 -14.574,11.289c-8.247,9.524 8.668,-0.187 14.267,1.421c5.6,1.607 30.899,-31.616 38.506,-36.742c7.607,-5.125 2.435,-33.944 11.441,-31.315c9.006,2.629 -0.955,6.894 -0.844,21.209c0.111,14.315 -9.679,14.559 -18.239,27.202c-8.56,12.643 -11.039,6.172 -15.462,14.994c-4.424,8.823 -4.849,4.719 -9.347,9.422c-4.498,4.704 -14.626,1.058 -12.685,3.886c1.942,2.829 31.478,25.387 40.895,60.381c9.416,34.995 3.645,59.011 1.937,66.185c-1.707,7.174 7.832,-9.605 20.409,14.109c3.464,6.531 13.691,-1.54 16.443,4.376c2.752,5.916 0.64,4.348 -1.332,5.361c-1.973,1.013 -13.448,-5.293 -15.148,-3.385c-1.7,1.909 11.036,0.686 9.476,5.694c-1.56,5.009 -8.339,-2.158 -9.547,-0.83c-1.208,1.329 0.495,3.472 -3.284,5.722c-3.78,2.25 9.281,6.523 5.727,10.519c-3.555,3.997 -8.923,-7.401 -12.67,-11.475c-2.662,-2.894 -4.507,3.505 -3.49,9.267c0.628,3.558 4.624,6.094 3.378,8.381c-3.722,4.563 -12.398,1.576 -11.136,-9.462c0.672,-5.873 3.789,-3.82 2.844,-8.701c-0.945,-4.88 -4.897,-6.677 -7.469,-6.059c-2.572,0.618 0.316,18.313 -20.406,22.605c-20.721,4.293 -23.327,-5.75 -26.542,-10.06c-3.215,-4.311 -2.198,-11.705 1.584,-17.329c9.397,-13.973 22.74,-17.569 22.74,-17.569Z" style="fill:none;stroke:#000;stroke-width:0.75px;"/>
</svg>
