<?xml version="1.0" encoding="UTF-8" standalone="no"?>
<!DOCTYPE svg PUBLIC "-//W3C//DTD SVG 1.1//EN" "http://www.w3.org/Graphics/SVG/1.1/DTD/svg11.dtd">
<svg width="100%" height="100%" viewBox="0 0 275 233" version="1.1" xmlns="http://www.w3.org/2000/svg" xmlns:xlink="http://www.w3.org/1999/xlink" xml:space="preserve" xmlns:serif="http://www.serif.com/" style="fill-rule:evenodd;clip-rule:evenodd;stroke-linecap:round;stroke-linejoin:round;stroke-miterlimit:1.5;">
  <path d="M78.149,203.807c0,0 -4.36,-4.278 -7.212,-5.345c-7.6,-2.842 -17.473,-10.996 -21.532,-27.621c-5.15,-21.097 12.328,-20.901 4.227,-42.227c-1.855,-4.884 -14.262,-2.718 -14.495,0.013c-0.604,7.068 4.291,7.939 -0.675,11.344c-6.392,4.382 -7.49,2.873 -12.662,7.215c-4.454,3.739 -5.398,6.039 -5.946,10.606c-0.2,1.669 -4.98,-1.297 -6.443,-3.29c-1.013,-1.38 -3.015,-2.984 -2.608,-5.303c0.407,-2.318 7.145,-6.066 7.234,-10.003c0.088,-3.937 5.107,-0.557 6.902,-4.707c1.794,-4.15 4.849,-3.735 2.528,-6.025c-2.322,-2.29 -4.743,2.283 -4.768,6.393c-0.026,4.11 -4.986,1.392 -4.744,-1.361c0.242,-2.752 0.078,-6.103 7.022,-13.127c2.327,-2.354 5.498,-7.49 5.494,-13.41c-0.003,-6.363 -5.435,-8.884 -5.435,-8.884c0,0 8.915,1.463 10.481,6.115c1.567,4.653 0.333,8.835 0.333,8.835c0,0 4.66,-5.566 9.948,-8.302c10.534,-5.451 14.911,-3.697 14.911,-3.697c-8.356,2.529 -11.605,5.211 -13.551,8.164c10.814,-2.026 20.404,2.606 27.68,10.584c-6.538,-3.46 -12.355,-5.542 -15.41,-4.333c8.736,2.038 16.306,8.19 21.336,18.645c-4.538,-3.687 -7.883,-5.744 -8.798,-4.481c8.177,11.188 7.22,21.346 0.4,30.843c1.344,-6.198 1.537,-10.206 0.632,-12.124c-3.684,3.152 -4.872,9.745 -4.605,14.953c1.073,20.978 34.691,22.559 42.875,22.906c3.575,0.151 4.339,-2.38 3.915,-7.528c-0.693,-8.404 -12.23,-10.865 -22.2,-23.452c-11.341,-14.32 -12.837,-29.213 -12.589,-35.491c0.249,-6.279 -0.101,-16.028 5.643,-28.871c3.64,-8.14 4.617,-17.805 3.003,-22.853c-0.051,-0.162 -0.106,-0.319 -0.163,-0.471c-1.806,-4.813 -9.573,-15.997 -20.385,-16.15c-8.287,-0.118 -5.943,4.056 -11.648,5.083c-4.756,0.856 -3.536,-1.666 -12.064,-8.859c-4.978,-4.199 -6.117,-5.99 -12.927,-6.757c-6.81,-0.767 -5.796,0.571 -7.335,-0.734c-1.539,-1.304 -0.428,-3.672 0.012,-5.388c0.441,-1.717 4.545,-8.226 7.719,-7.932c1.71,0.158 8.394,4.324 13.501,4.894c0.954,0.106 0.999,2.298 1.958,3.619c0.801,1.102 2.609,1.386 2.63,1.344c1.703,-3.366 6.039,-1.124 8.945,-1.616c2.906,-0.492 3.915,3.62 0.87,4.786c-3.045,1.166 -0.1,-2.262 -9.479,-2.956c-3.663,-0.271 -5.26,-5.605 -3.483,-5.38c4.32,0.546 4.551,-2.986 8.957,-2.853c10.122,0.307 10.712,3.797 12.843,3.932c3.764,0.239 12.217,0.735 16.176,-2.303c3.958,-3.038 5.687,-4.743 5.687,-4.743c-0.587,7.224 -3.746,10.919 -11.376,13.848c11.536,2.25 22.21,5.254 31.678,10.332c-5.627,-1.228 -10.729,-1.59 -15.063,-0.686c12.414,5.19 19.911,13.28 23.068,23.929c-4.423,-6.604 -9.815,-10.349 -14.273,-9.683c9.726,6.215 12.825,15.769 9.132,32.069c-0.938,-7.672 -2.312,-13.337 -4.513,-14.64c2.425,16.446 0.989,27.015 -4.565,31.316c0.618,-5.61 0.787,-15.604 -0.055,-14.116c-0.841,1.488 -5.406,15.196 -4.993,23.045c0.649,12.342 6.216,21.627 15.538,29.96c9.323,8.332 31.548,17.161 31.548,17.161c0,0 -0.638,-5.503 -2.743,-8.635c-4.037,-6.005 -8.079,-13.194 -9.46,-13.156c-2.515,0.069 2.473,16.032 2.473,16.032c-10.751,-12.115 -12.715,-26.49 -2.743,-42.485c-1.685,-1.305 -6.026,2.006 -11.353,7.031c8.652,-22.428 32.104,-35.338 40.702,-23.597c8.322,11.362 13.841,19.359 11.321,34.042c-1.19,6.932 -6.617,17.343 -6.617,17.343c0,0 -3.553,-6.071 -6.847,-9.662c-1.858,-2.026 -9.156,-8.175 -9.469,-16.337c-0.231,-6.006 3.07,-12.289 14.963,-18.787c2.879,-1.573 -11.541,-22.277 -34.52,-10.543c-0.969,0.495 2.26,-2.658 6.675,-5.024c3.354,-1.796 8.622,-2.972 8.622,-2.972c-5.806,-3.168 -9.85,-7.964 -13.702,-13.374c-1.102,3.816 -0.29,8.984 2.968,15.793c-9.878,-7.288 -14.261,-20.603 -8.488,-45.054c-1.901,-0.468 -6.694,2.536 -12.164,6.352c9.943,-16.617 23.051,-25.413 39.664,-25.541c-7.633,-4.216 -17.57,-3.678 -28.99,-0.079c9.808,-8.357 25.076,-8.517 44.268,-2.788c1.361,-3.31 -4.467,-8.93 -12.705,-15.323c8.079,1.498 14.506,7 21.727,14.96c3.415,3.764 8.272,4.686 12.856,8.526c-5.383,-12.439 -9.396,-21.952 -4.337,-28.824c0,0 -1.326,16.536 13.256,29.655c7.064,6.355 7.616,1.582 13.919,12.301c1.728,2.939 -2.393,8.291 -4.376,8.583c-1.983,0.292 -2.328,-2.654 -4.978,-4.341c-2.408,-1.535 -1.669,-1.377 -3.978,-1.791c-2.309,-0.413 0.243,-4.744 1.413,-4.778c3.765,-0.111 6.905,7.39 7.377,9.425c0.472,2.035 4.496,-1.925 4.926,-4.035c0.43,-2.11 -0.08,3.498 3.219,6.415c9.389,8.302 16.27,7.097 13.298,16.833c-0.737,2.414 -1.668,4.287 -1.572,5.747c0.096,1.459 -5.595,1.986 -5.921,3.493c-0.327,1.506 -1.765,-7.305 -13.139,-12.755c-11.374,-5.45 -20.364,-2.334 -22.826,-5.466c-2.463,-3.132 -1.701,-5.893 -1.483,-7.85c0.217,-1.95 0.603,-4.012 -0.279,-5.488c-0.881,-1.477 -7.627,-8.327 -18.545,-9.836c-10.918,-1.51 -17.17,6.492 -16.067,14.892c1.291,9.822 14.494,24.054 14.494,24.054c0,0 9.055,1.703 14.495,4.596c1.713,0.91 14.483,1.25 14.483,1.25c-8.697,-6.725 -12.588,-10.711 -9.979,-17.052c0,0 0.459,10.025 19.131,14.513c6.974,1.677 3.32,8.496 4.9,12.145c0.603,1.393 1.317,-0.92 5.873,0.521c2.575,0.815 5.936,1.175 5.936,1.175c0,0 -1.919,-2.115 -5.202,-4.372c-3.784,-2.601 -4.997,-0.978 -6.228,-1.743c-1.23,-0.766 -2.481,-8.318 2.702,-7.06c12.936,3.138 8.883,7.789 14.083,10.031c1.284,0.553 5.227,2.75 10.377,2.31c11.223,-0.959 7.782,5.035 10.514,13.152c0.431,1.282 -3.694,3.655 -3.933,5.789c0,0 -5.104,-6.175 -15.011,-5.433c-9.907,0.742 -17.265,3.921 -20.983,5.433c-3.719,1.512 -7.416,-7.828 -8.147,-10.084c-1.28,-3.954 -12.112,-3.318 -12.012,-2.847c0,0 8.719,7.629 8.151,30.202c-0.856,34.053 -6.255,47.181 -15.902,61.734c2.838,1.777 26.35,-3.086 29.515,-10.606c3.391,-8.056 -3.75,-17.996 -3.75,-17.996c-0.64,2.912 -0.211,6.761 1.51,11.741c-6.89,-7.299 -9.375,-16.108 -4.584,-27.411c-1.652,1.347 -3.721,5.459 -5.888,9.136c2.601,-11.633 9.003,-19.916 15.848,-22.445c-1.895,-0.412 -3.427,-1.175 -11.445,4.312c3.353,-8.098 11.358,-11.544 21.902,-12.452c-1.788,-1.83 -5.697,-3.523 -13.239,-5.2c6.978,-0.342 14.854,-0.176 23.48,7.399c-3.039,-8.13 1.208,-13.273 7.947,-14.351c0,0 -10.758,6.318 4.279,20.876c3.876,3.752 7.097,3.87 6.431,12.452c-0.213,2.744 -2.733,0.783 -4.28,0.149c-1.548,-0.633 -3.074,-5.246 -4.693,-3.99c-1.618,1.256 -0.634,-4.855 1.111,-3.728c1.746,1.127 5.031,5.763 4.011,7.771c-0.147,0.289 1.707,0.811 4.422,2.108c1.165,0.557 3.339,2.992 4.003,3.535c1.79,1.463 4.076,1.904 3.78,5.392c-0.58,6.819 -7.298,7.82 -7.298,7.82c0,0 0.064,-5.589 -7.157,-9.692c-9.578,-5.444 -11.02,-2.468 -13.133,-5.041c-1.283,-1.562 0.129,-3.433 0.382,-5.246c0.46,-3.303 -1.414,-4.867 -5.299,-5.819c-3.876,-0.949 -9.558,4.776 -8.948,10.863c1.047,10.448 9.91,13.277 8.686,24.463c-2.29,20.931 -25.103,30.168 -25.103,30.168c5.02,-1.17 10.74,-4.415 15.138,-3.26c-2.99,3.282 -5.79,6.153 -3.269,7.395c2.537,1.25 8.443,-4.047 8.443,-4.047c0,0 22.161,11.022 30.333,10.497c8.172,-0.525 7.624,-2.561 7.923,-3.68c0.298,-1.119 -1.253,-4.469 -5.672,-4.775c-2.754,-0.191 -4.269,0.758 -4.012,2.257c0.397,2.319 5.189,0.278 5.189,0.278c-0.654,2.413 -2.351,3.846 -5.167,3.567c-3.005,-0.297 -4.585,-2.879 -4.382,-4.933c0.202,-2.053 3.396,-4.843 8.511,-4.268c5.116,0.575 11.36,4.181 11.035,9.446c-0.272,4.404 -4.691,7.039 -4.691,7.039l-255.284,-0.048c-0.538,-0.189 -2.761,-0.127 -1.773,-4.673c0.361,-1.662 3.029,-4.757 7.327,-2.231c0,0 -3.933,0.298 -3.587,2.501c0.219,1.396 1.308,1.742 3.576,1.82c10.187,0.35 9.223,-7.304 9.223,-7.304c0,0 6.329,4.185 13.616,4.387c7.287,0.203 7.434,-3.127 7.202,-4.136c-1.536,-6.679 -8.553,1.677 -8.553,1.677c0,0 3.638,-13.328 16.032,-12.394c7.048,0.532 7.308,8.369 18.462,8.476c1.231,0.012 2.726,-1.681 2.589,-2.962c-0.381,-3.563 -7.545,-6.239 -7.545,-6.239c4.313,-2.149 9.364,-1.921 13.928,-0.046Z" style="fill:none;stroke:#eb58f9;stroke-width:0.75px;"/>
</svg>
